HIERARCHY
ROOT Hips
{
 OFFSET 0.000000 0.000000 0.000000
 CHANNELS 6 Xposition Yposition Zposition Yrotation Xrotation Zrotation
 JOINT Chest
 {
  OFFSET 0.000000 11.395451 -0.039534
  CHANNELS 3 Yrotation Xrotation Zrotation
  JOINT Chest2
  {
   OFFSET 0.000000 9.398669 0.071813
   CHANNELS 3 Yrotation Xrotation Zrotation
   JOINT Chest3
   {
    OFFSET 0.000000 8.489801 0.000000
    CHANNELS 3 Yrotation Xrotation Zrotation
    JOINT Chest4
    {
     OFFSET 0.000000 8.489801 0.000000
     CHANNELS 3 Yrotation Xrotation Zrotation
     JOINT Neck
     {
      OFFSET 0.000000 12.404889 0.000000
      CHANNELS 3 Yrotation Xrotation Zrotation
      JOINT Head
      {
       OFFSET 0.000000 8.903270 0.092239
       CHANNELS 3 Yrotation Xrotation Zrotation
       End Site
       {
        OFFSET 0.000000 17.592497 0.007158
       }
      }
     }
     JOINT RightCollar
     {
      OFFSET -3.196775 6.966722 0.000000
      CHANNELS 3 Yrotation Xrotation Zrotation
      JOINT RightShoulder
      {
       OFFSET -15.955896 0.000000 0.000000
       CHANNELS 3 Yrotation Xrotation Zrotation
       JOINT RightElbow
       {
        OFFSET -24.792472 0.000000 0.000000
        CHANNELS 3 Yrotation Xrotation Zrotation
        JOINT RightWrist
        {
         OFFSET -20.900115 0.000000 0.025002
         CHANNELS 3 Yrotation Xrotation Zrotation
         End Site
         {
          OFFSET -16.056692 0.000000 0.000000
         }
        }
       }
      }
     }
     JOINT LeftCollar
     {
      OFFSET 3.196775 6.966722 0.000000
      CHANNELS 3 Yrotation Xrotation Zrotation
      JOINT LeftShoulder
      {
       OFFSET 15.955896 0.000000 0.000000
       CHANNELS 3 Yrotation Xrotation Zrotation
       JOINT LeftElbow
       {
        OFFSET 24.792472 0.000000 0.000000
        CHANNELS 3 Yrotation Xrotation Zrotation
        JOINT LeftWrist
        {
         OFFSET 20.900115 0.000000 0.025002
         CHANNELS 3 Yrotation Xrotation Zrotation
         End Site
         {
          OFFSET 16.056692 0.000000 0.000000
         }
        }
       }
      }
     }
    }
   }
  }
 }
 JOINT RightHip
 {
  OFFSET -9.568995 0.193718 0.019767
  CHANNELS 3 Yrotation Xrotation Zrotation
  JOINT RightKnee
  {
   OFFSET 0.000000 -56.649296 0.015402
   CHANNELS 3 Yrotation Xrotation Zrotation
   JOINT RightAnkle
   {
    OFFSET 0.000000 -41.365147 0.021264
    CHANNELS 3 Yrotation Xrotation Zrotation
    JOINT RightToe
    {
     OFFSET 0.000000 -7.465940 17.672538
     CHANNELS 3 Yrotation Xrotation Zrotation
     End Site
     {
      OFFSET 0.000000 -1.736315 7.837145
     }
    }
   }
  }
 }
 JOINT LeftHip
 {
  OFFSET 9.568995 0.193718 0.019767
  CHANNELS 3 Yrotation Xrotation Zrotation
  JOINT LeftKnee
  {
   OFFSET 0.000000 -56.649296 0.015402
   CHANNELS 3 Yrotation Xrotation Zrotation
   JOINT LeftAnkle
   {
    OFFSET 0.000000 -41.365147 0.021264
    CHANNELS 3 Yrotation Xrotation Zrotation
    JOINT LeftToe
    {
     OFFSET 0.000000 -7.465940 17.672538
     CHANNELS 3 Yrotation Xrotation Zrotation
     End Site
     {
      OFFSET 0.000000 -1.736315 7.837145
     }
    }
   }
  }
 }
}
MOTION
Frames: 17
Frame Time: 0.016667
134.127141 106.351666 110.161838 -20.804932 -7.660258 0.478186 -3.470122 5.218943 -0.810917 -1.531498 2.325538 -0.320951 -1.531498 2.325538 -0.320951 -1.147244 1.744971 -0.234851 0.323361 17.262411 -0.882465 0.902377 -4.117316 -1.742880 3.224579 5.556087 9.903903 3.049256 -14.033510 76.944725 -1.280603 10.458879 -6.371322 0.703386 8.874939 3.267582 3.424394 10.888211 -6.043714 -9.187542 -21.632856 -78.526787 2.958660 8.193127 4.998308 1.390771 -1.149095 -7.842911 10.927684 14.581646 2.207954 -1.375601 0.289797 0.017885 -10.446171 -7.515797 0.124434 0.000000 0.000000 0.000000 -0.312513 12.600603 -1.559466 0.516041 3.344106 0.044846 0.893553 -8.358172 -0.588313 -0.000000 0.000000 0.000000
134.196483 106.351103 110.096531 -20.840169 -7.577586 0.476877 -3.434988 5.187098 -0.785405 -1.516260 2.311136 -0.310261 -1.516260 2.311137 -0.310261 -1.135867 1.734136 -0.226929 0.306945 17.247697 -0.867264 0.867023 -4.145163 -1.709309 3.141273 5.509657 9.824582 3.089124 -13.964825 77.011090 -1.248118 10.466690 -6.380571 0.729011 8.887057 3.270662 3.387957 10.819101 -6.061979 -9.160035 -21.557940 -78.628514 3.035519 8.192422 5.053406 1.357772 -1.144974 -7.802106 10.985779 14.483889 2.263457 -1.496053 0.249462 -0.166401 -10.386426 -7.478800 0.232551 0.000000 0.000000 0.000000 -0.333548 12.455287 -1.614918 0.574045 3.360926 0.094412 0.891802 -8.306252 -0.583430 -0.000000 0.000000 -0.000000
134.265824 106.350541 110.031224 -20.875400 -7.494915 0.475518 -3.399841 5.155247 -0.759942 -1.501013 2.296736 -0.299588 -1.501013 2.296736 -0.299588 -1.124483 1.723301 -0.219019 0.290537 17.232962 -0.852067 0.831671 -4.173037 -1.675740 3.058053 5.463122 9.745313 3.129062 -13.896191 77.077490 -1.215646 10.474520 -6.389835 0.754634 8.899181 3.273738 3.351586 10.749971 -6.080244 -9.132627 -21.482971 -78.730149 3.112365 8.191546 5.108520 1.324773 -1.140882 -7.761303 11.043845 14.386118 2.318831 -1.616290 0.208694 -0.350647 -10.326689 -7.441880 0.340733 0.000000 0.000000 0.000000 -0.354498 12.309919 -1.670178 0.632028 3.377698 0.144037 0.890054 -8.254332 -0.578553 0.000000 -0.000000 -0.000000
134.333034 106.350605 109.969461 -20.906910 -7.418463 0.474598 -3.368858 5.124856 -0.737407 -1.487575 2.283015 -0.290153 -1.487575 2.283015 -0.290153 -1.114449 1.712980 -0.212028 0.273194 17.218494 -0.836060 0.794295 -4.200427 -1.640338 2.981596 5.422045 9.672126 3.161607 -13.833651 77.140256 -1.182294 10.487445 -6.395247 0.779802 8.905843 3.275505 3.316463 10.686840 -6.097461 -9.106614 -21.413763 -78.827143 3.191938 8.186083 5.163823 1.295341 -1.139025 -7.724644 11.087042 14.291934 2.360095 -1.714020 0.170771 -0.512882 -10.277155 -7.404960 0.437652 0.000000 0.000000 0.000000 -0.370481 12.174654 -1.720686 0.679567 3.395852 0.188781 0.890597 -8.210645 -0.572076 0.000000 0.000000 -0.000000
134.397383 106.351631 109.912911 -20.933398 -7.350581 0.474367 -3.343549 5.096431 -0.719228 -1.476600 2.270212 -0.282571 -1.476600 2.270212 -0.282571 -1.106255 1.703354 -0.206415 0.254405 17.204034 -0.817973 0.753513 -4.227838 -1.600573 2.915197 5.388710 9.607685 3.179990 -13.779094 77.197796 -1.144207 10.511187 -6.391770 0.805423 8.901656 3.275123 3.283665 10.631069 -6.113384 -9.083662 -21.352450 -78.918195 3.279736 8.168322 5.221422 1.270045 -1.144321 -7.692219 11.105248 14.201164 2.379347 -1.773321 0.138676 -0.643331 -10.245358 -7.367951 0.518530 -0.000000 0.000000 -0.000000 -0.377771 12.053452 -1.764227 0.709943 3.417731 0.226726 0.895543 -8.180722 -0.563008 0.000000 -0.000000 -0.000000
134.459601 106.353283 109.859905 -20.956165 -7.288916 0.474603 -3.322409 5.069472 -0.703950 -1.467439 2.258089 -0.276218 -1.467439 2.258089 -0.276218 -1.099416 1.694242 -0.201713 0.234675 17.189850 -0.799075 0.710693 -4.254744 -1.558965 2.855513 5.360880 9.549295 3.190956 -13.730578 77.251655 -1.105231 10.540012 -6.384412 0.830593 8.892011 3.273420 3.252085 10.581304 -6.128252 -9.062049 -21.296935 -79.004659 3.370222 8.145950 5.279150 1.248305 -1.151851 -7.663952 11.108634 14.113995 2.384645 -1.810218 0.109743 -0.751800 -10.223749 -7.330867 0.588091 -0.000000 0.000000 -0.000000 -0.380138 11.942387 -1.803146 0.729897 3.441032 0.259745 0.902778 -8.159033 -0.552330 0.000000 -0.000000 -0.000000
134.519751 106.355177 109.808990 -20.975404 -7.232636 0.475091 -3.305097 5.043933 -0.690120 -1.459957 2.246615 -0.270452 -1.459957 2.246615 -0.270452 -1.093833 1.685619 -0.197445 0.214589 17.177027 -0.782359 0.667939 -4.279081 -1.521242 2.799251 5.337359 9.494939 3.207297 -13.688403 77.302877 -1.076041 10.561806 -6.384388 0.852141 8.887606 3.271610 3.219618 10.539477 -6.141736 -9.037978 -21.246697 -79.085974 3.449641 8.137695 5.330809 1.231990 -1.149054 -7.643713 11.112799 14.034582 2.385943 -1.850364 0.078848 -0.845709 -10.199901 -7.293771 0.649260 0.000000 0.000000 0.000000 -0.383950 11.839801 -1.839745 0.749194 3.460216 0.288581 0.908255 -8.137228 -0.541396 0.000000 0.000000 0.000000
134.577724 106.357286 109.760054 -20.989265 -7.181385 0.475928 -3.292733 5.019378 -0.677555 -1.454654 2.235595 -0.265185 -1.454654 2.235595 -0.265185 -1.089882 1.677339 -0.193542 0.193194 17.165926 -0.768576 0.623746 -4.300183 -1.488460 2.745661 5.318863 9.443923 3.237574 -13.654046 77.353233 -1.064855 10.569840 -6.399631 0.867594 8.895414 3.270783 3.183698 10.507300 -6.154259 -9.009274 -21.202256 -79.161605 3.517360 8.151794 5.376194 1.224994 -1.125369 -7.636232 11.124966 13.965343 2.385923 -1.906826 0.042427 -0.924908 -10.168411 -7.256089 0.702298 -0.000000 0.000000 0.000000 -0.392682 11.745374 -1.874744 0.771751 3.472817 0.312825 0.909588 -8.112267 -0.531036 0.000000 0.000000 0.000000
134.633628 106.359636 109.713209 -20.999598 -7.135518 0.477035 -3.284197 4.996246 -0.666422 -1.451031 2.225224 -0.260501 -1.451031 2.225224 -0.260501 -1.087188 1.669548 -0.190067 0.171442 17.156190 -0.756975 0.579622 -4.318711 -1.459564 2.695473 5.304684 9.396927 3.273188 -13.626052 77.400981 -1.063455 10.570838 -6.422222 0.879425 8.908451 3.269871 3.146873 10.483058 -6.165399 -8.978106 -21.163102 -79.232101 3.574123 8.180112 5.415581 1.223447 -1.091330 -7.636728 11.137901 13.903859 2.381865 -1.966589 0.004090 -0.989536 -10.134681 -7.218409 0.746959 -0.000000 -0.000000 -0.000000 -0.402869 11.659432 -1.907439 0.793645 3.481297 0.332887 0.909164 -8.087190 -0.520424 0.000000 0.000000 0.000000
134.687855 106.361924 109.667333 -21.012151 -7.095271 0.477927 -3.275780 4.975806 -0.655792 -1.447449 2.216052 -0.256020 -1.447449 2.216052 -0.256020 -1.084523 1.662657 -0.186741 0.152778 17.147821 -0.748294 0.542198 -4.334610 -1.437119 2.647624 5.291466 9.353996 3.301191 -13.600322 77.441901 -1.057863 10.572875 -6.439617 0.891878 8.916477 3.266867 3.114717 10.463550 -6.173560 -8.947221 -21.127161 -79.298508 3.608266 8.216915 5.443531 1.217601 -1.066011 -7.634817 11.145506 13.847035 2.375579 -2.016148 -0.030608 -1.047449 -10.102499 -7.182563 0.785424 0.000000 0.000000 0.000000 -0.410463 11.581270 -1.937959 0.812871 3.487506 0.350763 0.910094 -8.062762 -0.508427 0.000000 0.000000 0.000000
134.740254 106.364024 109.622034 -21.030825 -7.061198 0.478586 -3.265580 4.958677 -0.645466 -1.443065 2.208353 -0.251667 -1.443065 2.208353 -0.251667 -1.081255 1.656870 -0.183512 0.138055 17.140579 -0.743665 0.513451 -4.348311 -1.423519 2.600815 5.278174 9.316143 3.316337 -13.576381 77.473616 -1.041256 10.576294 -6.446149 0.906684 8.914161 3.260392 3.089400 10.447960 -6.176934 -8.916550 -21.092051 -79.361742 3.610585 8.265470 5.455580 1.202521 -1.058396 -7.627119 11.142551 13.793777 2.366806 -2.046680 -0.058595 -1.101111 -10.072714 -7.149392 0.817447 -0.000000 -0.000000 0.000000 -0.412196 11.511875 -1.965930 0.828178 3.490960 0.366624 0.913811 -8.039074 -0.494148 0.000000 0.000000 -0.000000
134.790975 106.366061 109.577705 -21.051718 -7.032746 0.479029 -3.255500 4.944240 -0.635640 -1.438722 2.201854 -0.247516 -1.438722 2.201854 -0.247516 -1.078017 1.651984 -0.180429 0.126423 17.134707 -0.741955 0.491412 -4.359388 -1.416373 2.556337 5.265855 9.282357 3.323869 -13.554673 77.498479 -1.020452 10.580753 -6.447474 0.922117 8.906840 3.251827 3.068740 10.437114 -6.177337 -8.886166 -21.060143 -79.420888 3.590264 8.322616 5.456165 1.183139 -1.059488 -7.617027 11.134272 13.745170 2.355849 -2.067036 -0.082915 -1.148066 -10.044476 -7.118051 0.843264 0.000000 0.000000 0.000000 -0.411350 11.450265 -1.991746 0.840816 3.492149 0.380290 0.918879 -8.016036 -0.478483 -0.000000 0.000000 0.000000
134.840864 106.368107 109.534406 -21.068869 -7.008486 0.478828 -3.247544 4.931906 -0.625990 -1.435316 2.196295 -0.243404 -1.435316 2.196295 -0.243404 -1.075480 1.647804 -0.177371 0.118768 17.130932 -0.740505 0.476796 -4.366514 -1.411071 2.517009 5.254284 9.249649 3.326588 -13.532466 77.519360 -1.001937 10.593310 -6.448038 0.937220 8.900269 3.243297 3.051790 10.430281 -6.178603 -8.859024 -21.036489 -79.474251 3.563185 8.372976 5.453180 1.164514 -1.061408 -7.604347 11.130269 13.701388 2.345363 -2.090216 -0.107203 -1.188809 -10.019026 -7.087837 0.865776 0.000000 -0.000000 0.000000 -0.413706 11.392784 -2.016686 0.852541 3.494378 0.393221 0.924105 -7.994147 -0.462994 0.000000 0.000000 0.000000
134.890569 106.370197 109.492085 -21.079035 -6.988648 0.477723 -3.243342 4.922192 -0.616367 -1.433571 2.191905 -0.239244 -1.433571 2.191905 -0.239244 -1.074189 1.644501 -0.174269 0.116777 17.128690 -0.738324 0.472383 -4.370728 -1.406366 2.484051 5.243053 9.217266 3.325976 -13.508893 77.535627 -0.985489 10.620021 -6.448479 0.952501 8.895242 3.234827 3.039313 10.427426 -6.182053 -8.835120 -21.023471 -79.520656 3.530085 8.409365 5.446508 1.148127 -1.062174 -7.587812 11.136381 13.663020 2.336269 -2.123602 -0.132453 -1.221760 -9.997009 -7.058949 0.885010 -0.000000 -0.000000 -0.000000 -0.421204 11.338526 -2.041051 0.863182 3.499229 0.405913 0.928293 -7.973771 -0.448395 0.000000 0.000000 0.000000
134.939442 106.372296 109.450793 -21.085460 -6.973003 0.475983 -3.241263 4.914580 -0.606916 -1.432763 2.188453 -0.235124 -1.432763 2.188453 -0.235124 -1.073599 1.641902 -0.171190 0.118763 17.128549 -0.736404 0.475392 -4.370984 -1.403505 2.456240 5.232583 9.185960 3.320555 -13.484824 77.547905 -0.971327 10.654826 -6.448165 0.967444 8.890963 3.226385 3.030541 10.428587 -6.186368 -8.814423 -21.018714 -79.561298 3.490196 8.438966 5.436243 1.132493 -1.063758 -7.568703 11.146757 13.629482 2.327611 -2.159834 -0.157641 -1.248510 -9.977782 -7.031182 0.900931 0.000000 0.000000 0.000000 -0.431905 11.288400 -2.064544 0.872914 3.505121 0.417868 0.932638 -7.954545 -0.433973 -0.000000 -0.000000 -0.000000
134.986380 106.374372 109.410744 -21.091915 -6.959434 0.473977 -3.238418 4.906926 -0.597761 -1.431610 2.184984 -0.231144 -1.431610 2.184984 -0.231144 -1.072751 1.639290 -0.168217 0.120553 17.132938 -0.735067 0.478186 -4.362826 -1.401612 2.432733 5.223896 9.155002 3.308700 -13.460133 77.560943 -0.966609 10.686616 -6.449653 0.979559 8.890799 3.220022 3.022241 10.433135 -6.191427 -8.799826 -21.020140 -79.598039 3.457171 8.467933 5.430619 1.118239 -1.064236 -7.550664 11.153458 13.599193 2.319216 -2.189784 -0.183383 -1.274308 -9.960659 -7.003237 0.916346 -0.000000 -0.000000 0.000000 -0.445765 11.241476 -2.087522 0.884002 3.510614 0.429067 0.939539 -7.935875 -0.419144 0.000000 0.000000 0.000000
135.030860 106.376414 109.372295 -21.099207 -6.948021 0.471411 -3.233605 4.898548 -0.588877 -1.429583 2.181193 -0.227309 -1.429583 2.181193 -0.227309 -1.071246 1.636437 -0.165358 0.120602 17.144322 -0.733857 0.477720 -4.341697 -1.399285 2.413694 5.217570 9.123728 3.285960 -13.434806 77.576714 -0.975074 10.711573 -6.452639 0.987423 8.897230 3.217089 3.013016 10.441784 -6.197534 -8.793849 -21.028756 -79.631274 3.437064 8.499468 5.434177 1.105706 -1.062804 -7.535025 11.153680 13.572736 2.312179 -2.209543 -0.210379 -1.302009 -9.946682 -6.974536 0.932630 0.000000 -0.000000 0.000000 -0.465832 11.198296 -2.110547 0.898951 3.515211 0.439881 0.951043 -7.917830 -0.403173 0.000000 -0.000000 -0.000000
